<svg xmlns="http://www.w3.org/2000/svg" viewBox="0 0 256 256">
  <rect width="256" height="256" fill="#FF8C42" rx="32"/>
  <text x="128" y="140" font-family="Arial, sans-serif" font-size="120" font-weight="bold" fill="#FFFFFF" text-anchor="middle" dominant-baseline="middle">PV</text>
  <path d="M200 200 Q195 195 190 200 Q185 205 180 200 L175 195 Q170 190 165 195 L160 200 Q155 205 150 200 L145 195 Q140 190 135 195 L130 200 Q125 205 120 200 L115 195 Q110 190 105 195 L100 200 Q95 205 90 200 L85 195 Q80 190 75 195 L70 200 L65 195 L60 200 L55 205 L50 200 L50 210 Q50 220 60 220 L200 220 Q210 220 210 210 L210 200 Z" fill="#6BAE45"/>
  <ellipse cx="128" cy="210" rx="35" ry="20" fill="#FFFFFF" opacity="0.3"/>
</svg>